<svg xmlns="http://www.w3.org/2000/svg" viewBox="40 48 184 160"><path fill="rgba(0,0,0,0.0)" d="M 0,0 h 256 v 8 h -256 z M 0,8 h 256 v 8 h -256 z M 0,16 h 256 v 8 h -256 z M 0,24 h 256 v 8 h -256 z M 0,32 h 256 v 8 h -256 z M 0,40 h 256 v 8 h -256 z M 0,48 h 40 v 8 h -40 z M 216,48 h 40 v 8 h -40 z M 0,56 h 40 v 8 h -40 z M 224,56 h 32 v 8 h -32 z M 0,64 h 40 v 8 h -40 z M 224,64 h 32 v 8 h -32 z M 0,72 h 40 v 8 h -40 z M 224,72 h 32 v 8 h -32 z M 0,80 h 40 v 8 h -40 z M 224,80 h 32 v 8 h -32 z M 0,88 h 40 v 8 h -40 z M 224,88 h 32 v 8 h -32 z M 0,96 h 40 v 8 h -40 z M 224,96 h 32 v 8 h -32 z M 0,104 h 40 v 8 h -40 z M 224,104 h 32 v 8 h -32 z M 0,112 h 40 v 8 h -40 z M 224,112 h 32 v 8 h -32 z M 0,120 h 40 v 8 h -40 z M 224,120 h 32 v 8 h -32 z M 0,128 h 40 v 8 h -40 z M 224,128 h 32 v 8 h -32 z M 0,136 h 40 v 8 h -40 z M 224,136 h 32 v 8 h -32 z M 0,144 h 40 v 8 h -40 z M 224,144 h 32 v 8 h -32 z M 0,152 h 40 v 8 h -40 z M 224,152 h 32 v 8 h -32 z M 0,160 h 40 v 8 h -40 z M 224,160 h 32 v 8 h -32 z M 0,168 h 40 v 8 h -40 z M 224,168 h 32 v 8 h -32 z M 0,176 h 40 v 8 h -40 z M 224,176 h 32 v 8 h -32 z M 0,184 h 40 v 8 h -40 z M 224,184 h 32 v 8 h -32 z M 0,192 h 40 v 8 h -40 z M 224,192 h 32 v 8 h -32 z M 0,200 h 48 v 8 h -48 z M 216,200 h 40 v 8 h -40 z M 0,208 h 256 v 8 h -256 z M 0,216 h 256 v 8 h -256 z M 0,224 h 256 v 8 h -256 z M 0,232 h 256 v 8 h -256 z M 0,240 h 256 v 8 h -256 z M 0,248 h 256 v 8 h -256 z" /><path fill="rgba(255,255,255,1.0)" d="M 40,48 h 176 v 8 h -176 z M 40,56 h 8 v 8 h -8 z M 208,56 h 16 v 8 h -16 z M 40,64 h 8 v 8 h -8 z M 216,64 h 8 v 8 h -8 z M 40,72 h 8 v 8 h -8 z M 216,72 h 8 v 8 h -8 z M 40,80 h 8 v 8 h -8 z M 216,80 h 8 v 8 h -8 z M 40,88 h 8 v 8 h -8 z M 216,88 h 8 v 8 h -8 z M 40,96 h 8 v 8 h -8 z M 216,96 h 8 v 8 h -8 z M 40,104 h 8 v 8 h -8 z M 216,104 h 8 v 8 h -8 z M 40,112 h 8 v 8 h -8 z M 216,112 h 8 v 8 h -8 z M 40,120 h 8 v 8 h -8 z M 216,120 h 8 v 8 h -8 z M 40,128 h 8 v 8 h -8 z M 216,128 h 8 v 8 h -8 z M 40,136 h 8 v 8 h -8 z M 216,136 h 8 v 8 h -8 z M 40,144 h 8 v 8 h -8 z M 216,144 h 8 v 8 h -8 z M 40,152 h 8 v 8 h -8 z M 216,152 h 8 v 8 h -8 z M 40,160 h 8 v 8 h -8 z M 216,160 h 8 v 8 h -8 z M 40,168 h 8 v 8 h -8 z M 216,168 h 8 v 8 h -8 z M 40,176 h 8 v 8 h -8 z M 216,176 h 8 v 8 h -8 z M 40,184 h 8 v 8 h -8 z M 216,184 h 8 v 8 h -8 z M 40,192 h 16 v 8 h -16 z M 208,192 h 16 v 8 h -16 z M 48,200 h 168 v 8 h -168 z" /><path fill="rgba(16,44,48,1.0)" d="M 48,56 h 160 v 8 h -160 z M 48,64 h 8 v 8 h -8 z M 104,64 h 8 v 8 h -8 z M 168,64 h 8 v 8 h -8 z M 200,64 h 16 v 8 h -16 z M 48,72 h 8 v 8 h -8 z M 200,72 h 16 v 8 h -16 z M 48,80 h 8 v 8 h -8 z M 200,80 h 16 v 8 h -16 z M 48,88 h 8 v 8 h -8 z M 200,88 h 16 v 8 h -16 z M 48,96 h 8 v 8 h -8 z M 200,96 h 16 v 8 h -16 z M 48,104 h 8 v 8 h -8 z M 200,104 h 16 v 8 h -16 z M 48,112 h 8 v 8 h -8 z M 200,112 h 16 v 8 h -16 z M 48,120 h 8 v 8 h -8 z M 200,120 h 16 v 8 h -16 z M 48,128 h 8 v 8 h -8 z M 200,128 h 16 v 8 h -16 z M 48,136 h 8 v 8 h -8 z M 200,136 h 16 v 8 h -16 z M 48,144 h 8 v 8 h -8 z M 200,144 h 16 v 8 h -16 z M 48,152 h 8 v 8 h -8 z M 200,152 h 16 v 8 h -16 z M 48,160 h 8 v 8 h -8 z M 200,160 h 16 v 8 h -16 z M 48,168 h 8 v 8 h -8 z M 80,168 h 8 v 8 h -8 z M 200,168 h 16 v 8 h -16 z M 48,176 h 8 v 8 h -8 z M 80,176 h 8 v 8 h -8 z M 192,176 h 24 v 8 h -24 z M 48,184 h 168 v 8 h -168 z M 56,192 h 152 v 8 h -152 z" /><path fill="rgba(134,206,52,1.0)" d="M 56,64 h 48 v 8 h -48 z M 112,64 h 56 v 8 h -56 z M 176,64 h 24 v 8 h -24 z M 56,72 h 8 v 8 h -8 z M 96,72 h 24 v 8 h -24 z M 136,72 h 16 v 8 h -16 z M 160,72 h 24 v 8 h -24 z M 192,72 h 8 v 8 h -8 z M 56,80 h 8 v 8 h -8 z M 104,80 h 8 v 8 h -8 z M 144,80 h 8 v 8 h -8 z M 168,80 h 16 v 8 h -16 z M 192,80 h 8 v 8 h -8 z M 56,88 h 8 v 8 h -8 z M 104,88 h 8 v 8 h -8 z M 144,88 h 8 v 8 h -8 z M 160,88 h 8 v 8 h -8 z M 176,88 h 8 v 8 h -8 z M 192,88 h 8 v 8 h -8 z M 56,96 h 8 v 8 h -8 z M 96,96 h 16 v 8 h -16 z M 144,96 h 8 v 8 h -8 z M 160,96 h 8 v 8 h -8 z M 176,96 h 8 v 8 h -8 z M 192,96 h 8 v 8 h -8 z M 56,104 h 8 v 8 h -8 z M 72,104 h 24 v 8 h -24 z M 104,104 h 8 v 8 h -8 z M 144,104 h 8 v 8 h -8 z M 160,104 h 16 v 8 h -16 z M 192,104 h 8 v 8 h -8 z M 56,112 h 8 v 8 h -8 z M 72,112 h 24 v 8 h -24 z M 104,112 h 8 v 8 h -8 z M 120,112 h 16 v 8 h -16 z M 144,112 h 8 v 8 h -8 z M 160,112 h 24 v 8 h -24 z M 192,112 h 8 v 8 h -8 z M 56,120 h 144 v 8 h -144 z M 56,128 h 8 v 8 h -8 z M 72,128 h 24 v 8 h -24 z M 104,128 h 8 v 8 h -8 z M 144,128 h 8 v 8 h -8 z M 184,128 h 16 v 8 h -16 z M 56,136 h 8 v 8 h -8 z M 72,136 h 16 v 8 h -16 z M 96,136 h 16 v 8 h -16 z M 120,136 h 32 v 8 h -32 z M 192,136 h 8 v 8 h -8 z M 56,144 h 8 v 8 h -8 z M 88,144 h 24 v 8 h -24 z M 136,144 h 16 v 8 h -16 z M 192,144 h 8 v 8 h -8 z M 56,152 h 8 v 8 h -8 z M 72,152 h 16 v 8 h -16 z M 96,152 h 16 v 8 h -16 z M 120,152 h 32 v 8 h -32 z M 192,152 h 8 v 8 h -8 z M 56,160 h 8 v 8 h -8 z M 72,160 h 24 v 8 h -24 z M 104,160 h 8 v 8 h -8 z M 120,160 h 32 v 8 h -32 z M 192,160 h 8 v 8 h -8 z M 56,168 h 8 v 8 h -8 z M 72,168 h 8 v 8 h -8 z M 88,168 h 8 v 8 h -8 z M 104,168 h 8 v 8 h -8 z M 144,168 h 8 v 8 h -8 z M 184,168 h 16 v 8 h -16 z M 56,176 h 24 v 8 h -24 z M 88,176 h 104 v 8 h -104 z" /><path fill="rgba(255,255,255,1.0)" d="M 64,72 h 32 v 8 h -32 z M 64,80 h 8 v 8 h -8 z M 64,88 h 8 v 8 h -8 z M 64,96 h 32 v 8 h -32 z M 64,104 h 8 v 8 h -8 z M 64,112 h 8 v 8 h -8 z" /><path fill="rgba(255,255,255,1.0)" d="M 120,72 h 16 v 8 h -16 z" /><path fill="rgba(255,255,255,1.0)" d="M 152,72 h 8 v 8 h -8 z M 152,80 h 16 v 8 h -16 z M 152,88 h 8 v 8 h -8 z M 152,96 h 8 v 8 h -8 z M 152,104 h 8 v 8 h -8 z M 152,112 h 8 v 8 h -8 z" /><path fill="rgba(255,255,255,1.0)" d="M 184,72 h 8 v 8 h -8 z M 184,80 h 8 v 8 h -8 z M 184,88 h 8 v 8 h -8 z M 184,96 h 8 v 8 h -8 z M 176,104 h 16 v 8 h -16 z M 184,112 h 8 v 8 h -8 z" /><path fill="rgba(134,206,52,1.0)" d="M 72,80 h 24 v 8 h -24 z M 72,88 h 24 v 8 h -24 z" /><path fill="rgba(255,255,255,1.0)" d="M 96,80 h 8 v 8 h -8 z M 96,88 h 8 v 8 h -8 z" /><path fill="rgba(255,255,255,1.0)" d="M 112,80 h 8 v 8 h -8 z M 136,80 h 8 v 8 h -8 z M 112,88 h 8 v 8 h -8 z M 136,88 h 8 v 8 h -8 z M 112,96 h 8 v 8 h -8 z M 136,96 h 8 v 8 h -8 z M 112,104 h 32 v 8 h -32 z M 112,112 h 8 v 8 h -8 z M 136,112 h 8 v 8 h -8 z" /><path fill="rgba(134,206,52,1.0)" d="M 120,80 h 16 v 8 h -16 z M 120,88 h 16 v 8 h -16 z M 120,96 h 16 v 8 h -16 z" /><path fill="rgba(255,255,255,1.0)" d="M 168,88 h 8 v 8 h -8 z M 168,96 h 8 v 8 h -8 z" /><path fill="rgba(255,255,255,1.0)" d="M 96,104 h 8 v 8 h -8 z M 96,112 h 8 v 8 h -8 z" /><path fill="rgba(255,255,255,1.0)" d="M 64,128 h 8 v 8 h -8 z M 64,136 h 8 v 8 h -8 z M 64,144 h 24 v 8 h -24 z M 64,152 h 8 v 8 h -8 z M 64,160 h 8 v 8 h -8 z M 64,168 h 8 v 8 h -8 z" /><path fill="rgba(255,255,255,1.0)" d="M 96,128 h 8 v 8 h -8 z" /><path fill="rgba(255,255,255,1.0)" d="M 112,128 h 32 v 8 h -32 z M 112,136 h 8 v 8 h -8 z M 112,144 h 24 v 8 h -24 z M 112,152 h 8 v 8 h -8 z M 112,160 h 8 v 8 h -8 z M 112,168 h 32 v 8 h -32 z" /><path fill="rgba(255,255,255,1.0)" d="M 152,128 h 32 v 8 h -32 z M 152,136 h 8 v 8 h -8 z M 152,144 h 8 v 8 h -8 z M 152,152 h 8 v 8 h -8 z M 152,160 h 8 v 8 h -8 z M 152,168 h 32 v 8 h -32 z" /><path fill="rgba(255,255,255,1.0)" d="M 88,136 h 8 v 8 h -8 z" /><path fill="rgba(134,206,52,1.0)" d="M 160,136 h 24 v 8 h -24 z M 160,144 h 24 v 8 h -24 z M 160,152 h 24 v 8 h -24 z M 160,160 h 24 v 8 h -24 z" /><path fill="rgba(255,255,255,1.0)" d="M 184,136 h 8 v 8 h -8 z M 184,144 h 8 v 8 h -8 z M 184,152 h 8 v 8 h -8 z M 184,160 h 8 v 8 h -8 z" /><path fill="rgba(255,255,255,1.0)" d="M 88,152 h 8 v 8 h -8 z" /><path fill="rgba(255,255,255,1.0)" d="M 96,160 h 8 v 8 h -8 z M 96,168 h 8 v 8 h -8 z" /></svg>