<svg xmlns="http://www.w3.org/2000/svg" viewBox="0 0 462 130">
	<rect width="100%" height="100%" fill="rgb(0,43,54)" />
	<path fill="rgba(255,255,255,1.0)"
		d="M 0,0 h 462 v 7 h -462 z M 0,7 h 6 v 123 h -6 z M 6,123 h 456 v 7 h -456 z M 455,7 h 7 v 123 h -7 z" />
	<path fill="rgba(134,206,52,1.0)"
		d="M 20,21 h 15 v 45 h -15 z M 35,28 h 7 v 15 h -7 z M 42,36 h 31 v 7 h -31 z M 43,43 h 7 v 8 h -7 z M 50,28 h 23 v 15 h -23 z M 58,21 h 15 v 45 h -15 z" />
	<path fill="rgba(134,206,52,1.0)" d="M 80,21 h 30 v 7 h -30 z M 80,59 h 30 v 7 h -30 z M 88,28 h 15 v 38 h -15 z" />
	<path fill="rgba(134,206,52,1.0)"
		d="M 118,21 h 15 v 45 h -15 z M 133,28 h 7 v 15 h -7 z M 140,36 h 23 v 15 h -23 z M 148,21 h 15 v 45 h -15 z" />
	<path fill="rgba(134,206,52,1.0)"
		d="M 170,21 h 38 v 7 h -38 z M 170,28 h 15 v 38 h -15 z M 185,36 h 16 v 7 h -16 z M 185,59 h 23 v 7 h -23 z M 193,51 h 15 v 15 h -15 z" />
	<path fill="rgba(134,206,52,1.0)"
		d="M 216,21 h 37 v 7 h -37 z M 216,28 h 15 v 38 h -15 z M 231,59 h 22 v 7 h -22 z M 238,28 h 15 v 8 h -15 z M 238,51 h 15 v 15 h -15 z" />
	<path fill="rgba(134,206,52,1.0)"
		d="M 261,21 h 37 v 7 h -37 z M 261,28 h 15 v 38 h -15 z M 276,43 h 15 v 8 h -15 z M 283,28 h 15 v 15 h -15 z M 283,51 h 15 v 15 h -15 z" />
	<path fill="rgba(134,206,52,1.0)"
		d="M 306,21 h 38 v 7 h -38 z M 306,28 h 15 v 38 h -15 z M 321,43 h 23 v 8 h -23 z M 329,28 h 15 v 38 h -15 z" />
	<path fill="rgba(134,206,52,1.0)"
		d="M 351,21 h 38 v 7 h -38 z M 351,28 h 15 v 38 h -15 z M 366,43 h 23 v 8 h -23 z" />
	<path fill="rgba(134,206,52,1.0)" d="M 396,21 h 45 v 7 h -45 z M 411,28 h 15 v 38 h -15 z" />
	<path fill="rgba(134,206,52,1.0)"
		d="M 20,74 h 29 v 6 h -29 z M 20,80 h 11 v 12 h -11 z M 20,98 h 11 v 11 h -11 z M 31,86 h 18 v 6 h -18 z M 31,103 h 18 v 6 h -18 z M 37,92 h 12 v 17 h -12 z" />
	<path fill="rgba(134,206,52,1.0)"
		d="M 55,74 h 28 v 6 h -28 z M 55,80 h 11 v 29 h -11 z M 66,92 h 17 v 6 h -17 z M 72,80 h 11 v 18 h -11 z" />
	<path fill="rgba(134,206,52,1.0)"
		d="M 89,74 h 29 v 6 h -29 z M 89,80 h 12 v 29 h -12 z M 101,86 h 11 v 6 h -11 z M 101,103 h 17 v 6 h -17 z M 107,98 h 11 v 11 h -11 z" />
	<path fill="rgba(134,206,52,1.0)"
		d="M 124,74 h 29 v 6 h -29 z M 124,80 h 11 v 29 h -11 z M 135,86 h 12 v 6 h -12 z M 135,103 h 18 v 6 h -18 z M 141,98 h 12 v 11 h -12 z" />
	<path fill="rgba(134,206,52,1.0)"
		d="M 159,74 h 28 v 6 h -28 z M 159,80 h 11 v 29 h -11 z M 170,103 h 12 v 6 h -12 z M 176,80 h 11 v 23 h -11 z" />
	<path fill="rgba(134,206,52,1.0)"
		d="M 193,74 h 29 v 6 h -29 z M 193,80 h 12 v 29 h -12 z M 205,92 h 11 v 6 h -11 z M 210,80 h 12 v 12 h -12 z M 210,98 h 12 v 11 h -12 z" />
	<path fill="rgba(134,206,52,1.0)"
		d="M 228,74 h 11 v 35 h -11 z M 239,103 h 18 v 6 h -18 z M 245,74 h 12 v 35 h -12 z" />
	<path fill="rgba(134,206,52,1.0)"
		d="M 262,74 h 12 v 35 h -12 z M 274,80 h 6 v 12 h -6 z M 280,86 h 17 v 12 h -17 z M 286,74 h 11 v 35 h -11 z" />
	<path fill="rgba(134,206,52,1.0)"
		d="M 303,74 h 11 v 35 h -11 z M 314,80 h 6 v 12 h -6 z M 320,86 h 17 v 12 h -17 z M 326,74 h 11 v 35 h -11 z" />
	<path fill="rgba(134,206,52,1.0)"
		d="M 343,74 h 23 v 6 h -23 z M 343,103 h 23 v 6 h -23 z M 349,80 h 12 v 29 h -12 z" />
	<path fill="rgba(134,206,52,1.0)"
		d="M 372,74 h 12 v 35 h -12 z M 384,80 h 5 v 12 h -5 z M 389,86 h 18 v 12 h -18 z M 395,74 h 12 v 35 h -12 z" />
	<path fill="rgba(134,206,52,1.0)"
		d="M 413,74 h 28 v 6 h -28 z M 413,80 h 11 v 29 h -11 z M 424,103 h 17 v 6 h -17 z M 430,80 h 11 v 6 h -11 z M 430,92 h 11 v 17 h -11 z" />
</svg>
